<svg width="14" height="26" viewBox="0 0 14 26" fill="none" xmlns="http://www.w3.org/2000/svg">
<g clip-path="url(#clip0_409_16313)">
<path d="M11.7 7.63086H10.3V1.13086H11.2C11.5 1.13086 11.7 0.930859 11.7 0.630859C11.7 0.330859 11.4 0.130859 11.2 0.130859H2.8C2.6 0.130859 2.4 0.330859 2.4 0.630859C2.4 0.930859 2.6 1.13086 2.8 1.13086H3.7V7.63086H2.3C1.3 7.63086 0.5 8.63086 0.5 9.83086V11.0309V13.1309V18.4309V22.6309C0.5 22.9309 0.7 23.1309 1 23.1309H1.5V24.3309C1.5 24.7309 1.8 25.1309 2.3 25.1309H3.5C3.9 25.1309 4.3 24.7309 4.3 24.3309V23.1309H9.9V24.3309C9.9 24.7309 10.2 25.1309 10.7 25.1309H12C12.4 25.1309 12.8 24.7309 12.8 24.3309V23.1309H13.3C13.6 23.1309 13.8 22.9309 13.8 22.6309V18.4309V13.1309V11.0309V9.83086C13.5 8.63086 12.7 7.63086 11.7 7.63086ZM4.7 1.13086H9.3V7.63086H4.7V1.13086ZM3.3 24.1309H2.4V23.1309H3.3V24.1309ZM11.6 24.1309H10.7V23.1309H11.6V24.1309ZM12.6 11.0309V12.6309V13.6309V18.4309V19.9309V22.1309H12.1H10.3H5.7H3.8H1.9H1.4V18.4309V13.6309V12.6309V11.4309V11.0309V9.83086C1.4 9.23086 1.8 8.63086 2.3 8.63086H4.2H9.8H11.7C12.2 8.63086 12.6 9.13086 12.6 9.83086V11.0309Z" fill="#352B67"/>
</g>
<defs>
<clipPath id="clip0_409_16313">
<rect width="13" height="25" fill="white" transform="translate(0.5 0.130859)"/>
</clipPath>
</defs>
</svg>
